{
   "accessors" : 
   [
      {
         "bufferView" : 0,
         "byteOffset" : 0,
         "componentType" : 5126,
         "count" : 320,
         "max" : [ 91.113759609151003, 74.152317453813339, 41.774101359563375 ],
         "min" : [ -64.0, -31.313295904488371, -41.771395968192401 ],
         "type" : "VEC3"
      },
      {
         "bufferView" : 1,
         "byteOffset" : 0,
         "componentType" : 5125,
         "count" : 1920,
         "type" : "SCALAR"
      }
   ],
   "asset" : 
   {
      "generator" : "VTK",
      "version" : "2.0"
   },
   "bufferViews" : 
   [
      {
         "buffer" : 0,
         "byteLength" : 3840,
         "byteOffset" : 0
      },
      {
         "buffer" : 1,
         "byteLength" : 7680,
         "byteOffset" : 0
      }
   ],
   "buffers" : 
   [
      {
         "byteLength" : 3840,
         "uri" : "data:application/octet-stream;base64,"
      },
      {
         "byteLength" : 7680,
         "uri" : "data:application/octet-stream;base64,"
      }
   ],
   "cameras" : 
   [
      {
         "perspective" : 
         {
            "aspectRatio" : 1.6584734799482534,
            "yfov" : 0.52359877559829882,
            "zfar" : 507.27080633322373,
            "znear" : 309.5853042681515
         },
         "type" : "perspective"
      }
   ],
   "materials" : 
   [
      {
         "pbrMetallicRoughness" : 
         {
            "baseColorFactor" : [ 0.91764705882352937, 0.31764705882352939, 0.3843137254901961, 1.0 ],
            "metallicFactor" : 0.0,
            "roughnessFactor" : 1.0
         }
      }
   ],
   "meshes" : 
   [
      {
         "name" : "mesh0",
         "primitives" : 
         [
            {
               "attributes" : 
               {
                  "POSITION" : 0
               },
               "indices" : 1,
               "material" : 0,
               "mode" : 4
            }
         ]
      }
   ],
   "nodes" : 
   [
      {
         "mesh" : 0,
         "name" : "mesh0"
      },
      {
         "camera" : 0,
         "matrix" : 
         [
            1.0,
            0.0,
            0.0,
            0.0,
            0.0,
            1.0,
            0.0,
            0.0,
            0.0,
            0.0,
            1.0,
            0.0,
            -13.556879804575502,
            -21.419510774662484,
            -396.68122553333046,
            1.0
         ],
         "name" : "Camera Node"
      },
      {
         "children" : [ 0, 1 ],
         "name" : "Renderer Node"
      }
   ],
   "scene" : 0,
   "scenes" : 
   [
      {
         "name" : "Layer 0",
         "nodes" : [ 2 ]
      }
   ]
}